v -7.429999828 28.14199829 4.899000168
vn -0.4873262644 0.158751443 0.8586682081
v -3.117000103 28.12700081 4.899000168
vn 0.7456694841 0.1168876737 0.655983448
v -3.22300005 1.30400002 -0.001000089571
vn 0.4921682477 -0.08109214157 -0.8667147756
v -7.535999775 1.307000041 4.899000168
vn -0.9130584002 -0.06976417452 0.4018174708
v -3.22300005 1.30400002 4.899000168
vn 0.7448514104 -0.1227255315 0.6558465958
v -3.22300005 1.30400002 -0.001000089571
vn 0.4921682477 -0.08109214157 -0.8667147756
v -3.117000103 28.12700081 -0.001000089571
vn 0.9060815573 0.142033115 -0.3985508978
v -9.859000206 1.286000013 4.899000168
vn 0.4875169396 -0.1586174071 0.8585847616
v -14.17099953 1.289999962 4.899000168
vn -0.7456223965 -0.1168019548 0.6560522318
v -14.17099953 1.289999962 -0.001000089571
vn -0.9060696363 -0.1419360489 -0.3986126184
v -9.859000206 1.286000013 -0.001000089571
vn 0.7490774989 -0.06313484907 -0.6594671011
v -7.535999775 1.307000041 4.899000168
vn -0.9130584002 -0.06976417452 0.4018174708
v -7.535999775 1.307000041 -0.001000089571
vn -0.7302625775 -0.2318034619 -0.6426380873
v -9.753000259 28.12599945 4.899000168
vn 0.9130942822 0.06973702461 0.4017407298
v -9.753000259 28.12599945 -0.001000089571
vn 0.7305961251 0.2316418141 -0.6423171759
v -14.06599998 28.14199829 4.899000168
vn -0.7448856831 0.1226302087 0.6558255553
v -16.72400093 1.26699996 4.899000168
vn 0.7490412593 -0.06310110539 0.6595115066
v -16.72400093 1.26699996 -0.001000089571
vn 0.4874812365 -0.1585299075 -0.8586211801
v -16.61800003 28.12599945 -0.001000089571
vn 0.9061118364 0.1418422759 -0.3985500336
v -21.03700066 1.271000028 4.899000168
vn -0.7303401232 -0.2315002829 0.6426593065
v -21.03700066 1.271000028 -0.001000089571
vn -0.9130670428 -0.06967004389 -0.4018141925
v -20.93099976 28.14199829 4.899000168
vn -0.7448539734 0.1225660071 0.6558735967
v -3.155627728 28.12713432 -0.001000089571
vn 0.9026005268 0.143125549 -0.4059893489
v -3.155627728 18.35236931 -0.001000089571
vn 0.7969756722 0.06407865882 -0.600602746
v -7.535999775 1.307000041 -0.001000089571
vn -0.7302625775 -0.2318034619 -0.6426380873
v -3.22300005 1.30400002 4.899000168
vn 0.7448514104 -0.1227255315 0.6558465958
v -3.140925884 28.12708473 0.02618190087
vn 0.9072095156 0.1435271949 -0.3954375684
v -7.429999828 28.14199829 -0.001000089571
vn -0.7491170764 0.0631768629 -0.6594181657
v -3.118485689 27.7510891 0.06767118722
vn 0.9114602208 0.1394916177 -0.3870172501
v -3.117000103 28.12700081 4.899000168
vn 0.7456694841 0.1168876737 0.655983448
v -7.429999828 28.14199829 -0.001000089571
vn -0.7491170764 0.0631768629 -0.6594181657
v -7.429999828 28.14199829 4.899000168
vn -0.4873262644 0.158751443 0.8586682081
v -14.06599998 28.14199829 -0.001000089571
vn -0.4921997488 0.08103063703 -0.8667026162
v -16.61800003 28.12599945 4.899000168
vn 0.7456949353 0.1167307049 0.6559824944
v -20.93099976 28.14199829 -0.001000089571
vn -0.4921585023 0.08098487556 -0.8667303324
v -3.117000103 28.12700081 0.07041785121
vn 0.9112237096 0.1428391784 -0.3863525093
# mm_gid 0
g mmGroup0
f 5//5 6//6 7//7 
f 8//8 9//9 10//10 
f 8//8 10//10 11//11 
f 5//5 12//12 13//13 
f 5//5 13//13 6//6 
f 14//14 8//8 11//11 
f 14//14 11//11 15//15 
f 16//16 10//10 9//9 
f 17//17 18//18 19//19 
f 20//20 21//21 18//18 
f 20//20 18//18 17//17 
f 21//21 20//20 22//22 
f 5//5 7//7 30//30 
f 7//7 31//31 32//32 
f 7//7 32//32 30//30 
f 13//13 12//12 31//31 
f 31//31 12//12 32//32 
f 15//15 33//33 16//16 
f 15//15 16//16 14//14 
f 33//33 10//10 16//16 
f 19//19 34//34 17//17 
f 19//19 35//35 22//22 
f 19//19 22//22 34//34 
f 35//35 21//21 22//22 
f 25//25 28//28 3//3 
f 30//30 32//32 5//5 
f 12//12 5//5 32//32 
f 17//17 34//34 22//22 
f 23//23 24//24 28//28 
f 16//16 9//9 8//8 
f 16//16 8//8 14//14 
f 22//22 20//20 17//17 
f 3//3 28//28 24//24 
f 4//4 26//26 1//1 
f 2//2 1//1 26//26 
f 28//28 4//4 1//1 
f 25//25 4//4 28//28 
f 1//1 36//36 27//27 
f 1//1 2//2 36//36 
f 28//28 27//27 23//23 
f 28//28 1//1 27//27 
f 2//2 29//29 36//36 
f 2//2 26//26 29//29 
f 26//26 25//25 3//3 
f 15//15 11//11 33//33 
f 19//19 18//18 35//35 
f 26//26 4//4 25//25 
f 7//7 6//6 31//31 
f 10//10 33//33 11//11 
f 26//26 24//24 29//29 
f 26//26 3//3 24//24 
f 13//13 31//31 6//6 
f 21//21 35//35 18//18 
